<svg width="2673" height="600" viewBox="0 0 2673 600" fill="none" xmlns="http://www.w3.org/2000/svg">
<rect width="2673" height="600" fill="#2E2E2E"/>
<rect x="2073" width="600" height="600" fill="#008000"/>
<path d="M2247 88.231V192.848H2372.5M2498 88.231V192.848H2372.5M2372.5 192.848V52V350M2247 245.383V350H2498V245.383" stroke="white" stroke-width="70"/>
<path d="M2310 429.743L2332.5 429.743L2383 526.345L2361.34 526.345L2310 429.743Z" fill="white"/>
<path d="M2383.63 429.743L2361.13 429.743L2310.63 526.345L2332.29 526.345L2383.63 429.743Z" fill="white"/>
<rect x="2408" y="428.044" width="20" height="100" fill="white"/>
<rect x="2474" y="428.044" width="20" height="100" fill="white"/>
<rect x="2449" y="428.044" width="70" height="20" fill="white"/>
<rect x="2226" y="428.044" width="20" height="100" fill="white"/>
<rect x="2286" y="428.044" width="20" height="50" transform="rotate(90 2286 428.044)" fill="white"/>
<rect x="2286" y="508.044" width="20" height="50" transform="rotate(90 2286 508.044)" fill="white"/>
<rect x="2286" y="468.044" width="20" height="50" transform="rotate(90 2286 468.044)" fill="white"/>
<text fill="white" xml:space="preserve" style="white-space: pre" font-family="Roboto" font-size="500" font-weight="bold" letter-spacing="0em"><tspan x="160.031" y="463.898">A</tspan></text>
<text fill="white" xml:space="preserve" style="white-space: pre" font-family="Roboto" font-size="200" letter-spacing="0em"><tspan x="552" y="293.359">&#x697c;&#x68af;&#x95f4;&#10;</tspan></text>
<text fill="white" xml:space="preserve" style="white-space: pre" font-family="Roboto" font-size="100" letter-spacing="0em"><tspan x="660.789" y="410.359">Stairwell</tspan></text>
</svg>
